<?xml version="1.0" standalone="no"?><!DOCTYPE svg PUBLIC "-//W3C//DTD SVG 1.1//EN" "http://www.w3.org/Graphics/SVG/1.1/DTD/svg11.dtd"><svg t="1764922565718" class="icon" viewBox="0 0 1024 1024" version="1.1" xmlns="http://www.w3.org/2000/svg" p-id="11306" xmlns:xlink="http://www.w3.org/1999/xlink" width="200" height="200"><path d="M537.6 287.232a70.784 70.784 0 0 0 90.88-43.264 74.112 74.112 0 0 0-62.08-81.152 70.912 70.912 0 0 0-90.88 43.2 74.624 74.624 0 0 0 62.08 81.152z m395.52 56.96a543.04 543.04 0 0 0-31.36-69.824A456.192 456.192 0 0 0 761.6 120.32c-9.6-6.4-19.84-12.8-30.08-18.24C627.2 45.504 573.44 57.984 574.72 100.352a66.752 66.752 0 0 0 55.04 51.904c87.04 41.792 134.4 106.048 110.08 158.144-21.76 47.808-103.04 64.704-187.52 34.24-87.04-31.232-200.32-105.6-215.68-21.696C323.84 393.792 432.64 396.096 545.28 512a197.376 197.376 0 0 1 32.64 205.44c-60.8 104.832-235.52 80.384-314.24-5.248a263.936 263.936 0 0 1-74.24-225.856 386.304 386.304 0 0 1 46.08-117.376 131.456 131.456 0 0 0 23.68-68.224 60.48 60.48 0 0 0-60.16-61.504 93.632 93.632 0 0 0-90.24 62.208 470.912 470.912 0 0 0-34.56 297.28 18.688 18.688 0 0 0 1.28 5.76c1.92 10.048 4.48 19.904 7.04 29.504a328.256 328.256 0 0 0 14.08 38.72c3.84 8.128 7.04 16.256 10.24 24.128l0.64 1.216a443.776 443.776 0 0 0 557.44 234.624 462.336 462.336 0 0 0 268.16-588.48z" fill="#0F8EEB" p-id="11307"></path></svg>