<?xml version="1.0" standalone="no"?><!DOCTYPE svg PUBLIC "-//W3C//DTD SVG 1.1//EN" "http://www.w3.org/Graphics/SVG/1.1/DTD/svg11.dtd"><svg t="1764922599687" class="icon" viewBox="0 0 1024 1024" version="1.1" xmlns="http://www.w3.org/2000/svg" p-id="13345" xmlns:xlink="http://www.w3.org/1999/xlink" width="200" height="200"><path d="M153.6 409.6l446.976-347.648a51.2 51.2 0 0 1 31.3856-10.752H819.2a51.2 51.2 0 0 1 51.2 51.2v819.2a51.2 51.2 0 0 1-51.2 51.2H204.8a51.2 51.2 0 0 1-51.2-51.2V409.6z" fill="#D12C28" p-id="13346"></path><path d="M336.9984 512.512c1.28 0-6.4 23.1424-8.96 33.3824H457.728v178.4832a43.264 43.264 0 0 1-43.6224 43.5712H204.8v-222.0544h78.336c5.0688-11.4688 5.12-33.1264 5.12-33.3824 0.7168 0 34.7648-1.28 48.7424 0z m-88.576 154.0608v74.4448H389.632c14.1312 0 25.6512-11.52 25.6512-25.6512v-48.7936H248.4736z m0-91.136v68.0448h166.912v-68.096h-166.912z" fill="#FFFFFF" p-id="13347"></path><path d="M699.8528 657.6128h107.776v24.3712H699.904v61.6448c-1.28 11.52-11.5712 20.48-24.4224 21.8112h-47.4624v-20.5824h33.3312V681.984h-111.616v-24.3712h111.616v-23.1424h38.5536v23.1424z" fill="#FFFFFF" p-id="13348"></path><path d="M633.0368 689.664c-2.56 20.5312-17.92 39.8336-42.3424 52.6336-17.92 9.0112-35.9424 12.8-51.3536 10.24v-19.2c7.68 0 16.7424-2.56 25.7024-7.68 15.36-9.0112 25.7024-21.8624 28.2624-35.9936h39.7312zM764.0064 690.944c2.56 14.1312 12.8 26.9824 28.2624 35.9936 8.96 5.12 17.9712 6.4 25.7024 7.68v17.92c-15.4112 2.56-33.3824-1.2288-51.3536-10.24-23.1424-12.8-39.8336-32.0512-42.4448-51.3024h39.8336z" fill="#FFFFFF" p-id="13349"></path><path d="M658.7392 527.872h133.5296s2.56 20.6336-1.3312 27.0336c-3.9936 6.5024-66.6112 43.5712-66.7136 43.6736l94.976 20.48c0 1.28 2.56 25.7024 0 25.7024-2.816 0-124.2624-21.76-128.3584-23.0912-3.84-1.28-9.0112-1.28-17.9712 0l-134.7584 23.0912v-23.0912c1.024-0.1536 48.9984-6.4512 73.1136-11.5712 24.4224-5.12 29.5424-7.68 26.9824-8.96-2.6624-1.3312-46.08-29.4912-46.1824-29.5424l-42.3936 10.24v-24.3712c48.7936-6.4 73.216-43.6224 73.216-43.6224h46.1312l-10.24 14.08z m-28.2112 23.1936v1.2288s-6.4-1.2288-3.8912 3.8912c0.2048 0.1024 46.2336 33.3824 51.3536 33.3824 9.0112 1.28 16.6912-5.12 28.2624-14.1312 11.4688-8.96 30.5664-24.2176 30.7712-24.3712h-106.496z" fill="#FFFFFF" p-id="13350"></path><path d="M179.2 363.52L614.4 51.2 409.6 409.6l-230.4-46.08z" fill="#D9D7D8" p-id="13351"></path><path d="M153.6 409.6c0-51.2 133.12-163.84 256 0H153.6z" fill="#D12C28" p-id="13352"></path></svg>