<?xml version="1.0" standalone="no"?><!DOCTYPE svg PUBLIC "-//W3C//DTD SVG 1.1//EN" "http://www.w3.org/Graphics/SVG/1.1/DTD/svg11.dtd"><svg t="1764922536374" class="icon" viewBox="0 0 1024 1024" version="1.1" xmlns="http://www.w3.org/2000/svg" p-id="8498" xmlns:xlink="http://www.w3.org/1999/xlink" width="200" height="200"><path d="M105.4 513.715l3.497 41.544 3.502 38.052 10.333 41.543 13.86 34.55 17.29 38.078 20.787 31.145 10.358 17.3 13.824 13.824 24.289 31.12 31.15 24.248 31.114 24.187 34.514 20.792 34.652 17.326 38.047 13.86 38.047 10.327 20.787 3.502 20.72 3.461h83.093l38.047-6.958 41.508-10.327 34.61-13.86 38.083-17.326 31.12-20.792 17.29-10.358 13.824-13.824 31.155-24.248 24.187-31.12 24.218-31.124 20.756-31.145 17.357-38.078 13.829-34.55 10.394-41.543 3.43-17.29 3.461-20.762v-83.057l-6.897-41.512-10.393-38.078-13.83-38.01-17.356-34.622-20.757-34.652-10.393-17.25-13.824-13.86-24.187-27.658-31.155-27.673-31.114-24.223-31.12-20.762-38.082-17.326-34.612-13.85-41.507-10.357-17.29-3.477h-20.757l-20.792-3.46h-20.788l-41.507 3.46-41.508 3.477-38.047 10.358-38.047 13.85-34.652 17.325-34.514 20.762-17.32 10.388-13.794 13.835-31.15 27.673-24.29 27.658-24.186 31.11-20.788 34.652-17.29 34.621-13.86 38.011-10.332 38.078-3.502 20.761v20.757l-3.497 20.756v20.741h0.005z m-100.28 0l3.497-51.901 3.435-27.684 3.43-24.223 13.856-48.435 6.901-24.192 10.394-20.762 10.394-24.186 10.393-20.824 24.156-41.472 13.83-20.792 17.326-20.72 31.15-34.627 17.285-17.326 17.362-13.85 20.756-17.295 20.757-13.824 20.725-13.824 20.788-10.399 44.974-20.751 44.979-17.296 24.217-6.932 24.182-6.886 24.249-3.502 27.653-3.467 51.87-3.4 51.943 3.4 24.217 3.467 24.223 3.502 48.44 13.824 24.187 6.932 24.249 10.358 20.725 10.358 20.793 10.388 44.943 24.223 17.326 13.824 20.757 17.295 34.58 31.176 17.357 17.3 17.29 17.326 13.824 20.721 13.83 20.792 13.823 20.752 10.425 20.72 24.222 45.01 17.29 44.949 3.43 24.248 6.933 24.187 3.462 24.223 3.46 27.684 3.472 51.911-3.466 51.948-3.461 24.15-3.461 24.285-10.363 48.41-10.394 24.217-6.897 24.223-10.393 20.726-13.83 20.751-24.248 45.01-13.829 17.285-13.824 20.762-34.647 34.616-17.285 17.326-17.29 17.285-20.757 13.86-17.326 13.824-20.72 13.824-24.218 10.337-41.513 24.284-48.435 17.29-24.192 6.902-24.248 3.462-24.223 3.502-24.218 3.425-51.942 3.44-51.87-3.44-27.654-3.425-24.248-3.502-48.41-10.358-24.253-10.389-20.721-6.901-24.218-10.394-20.756-13.89-41.513-24.162-20.757-13.824-20.756-13.86-34.647-34.611-17.29-17.29-13.86-17.326-17.326-20.762-13.83-17.285-13.823-20.792-10.332-24.218-20.788-41.477-17.29-48.445-6.891-24.249-6.964-24.161-3.43-24.284-3.436-24.151-3.517-51.948z m792.279 34.647v224.85H548.332v-72.658h169.477v-83.02H548.332V392.616h169.477v-76.099H548.332v-72.652h249.067v224.87H627.922v76.093h169.477v3.533z m-570.865 0v224.85h249.099v-72.658H306.125v-83.02h169.508V392.616H306.125v-76.099h169.508v-72.652H226.534v224.87h169.539v76.093H226.534v3.533z" fill="#E50012" p-id="8499"></path></svg>