<?xml version="1.0" standalone="no"?><!DOCTYPE svg PUBLIC "-//W3C//DTD SVG 1.1//EN" "http://www.w3.org/Graphics/SVG/1.1/DTD/svg11.dtd"><svg t="1764923782569" class="icon" viewBox="0 0 1024 1024" version="1.1" xmlns="http://www.w3.org/2000/svg" p-id="1538" xmlns:xlink="http://www.w3.org/1999/xlink" width="200" height="200"><path d="M743.09 528.167V709.55H541.934v-58.639h136.918v-66.937H541.93V402.77h136.922v-61.46H541.93v-58.67h201.16v181.203H606.172v61.437H743.09v2.886z m-461.213 0v-2.886H418.8v-61.437H281.877V282.641H483.01v58.67H346.092v61.46H483.01v181.203H346.092v66.937H483.01v58.64H281.877V528.166zM511.998 90C737.907 90 921 273.095 921 499.002S737.907 908 511.998 908C286.094 908 103 724.909 103 499.002 103 273.095 286.094 90 511.998 90z m0 736.886v-0.012c181.083 0 327.874-146.74 327.874-327.864 0-181.125-146.791-327.927-327.874-327.927-181.079 0-327.874 146.848-327.874 327.927 0 181.082 146.787 327.876 327.874 327.876z" fill="#E60012" p-id="1539"></path></svg>